<svg xmlns="http://www.w3.org/2000/svg" xmlns:xlink="http://www.w3.org/1999/xlink" xml:space="preserve" version="1.1" style="shape-rendering:geometricPrecision;text-rendering:geometricPrecision;image-rendering:optimizeQuality;" viewBox="0 0 60000 75000" x="0px" y="0px" fill-rule="evenodd" clip-rule="evenodd"><defs><style type="text/css">
   
    .fil0 {fill:black;fill-rule:nonzero}
   
  </style></defs><g><path class="fil0" d="M25091 50021c-132,-39 -207,-178 -168,-311 39,-132 178,-207 311,-168 1041,311 2247,520 3377,584 1049,60 2028,-4 2741,-226 132,-41 272,32 313,164 41,132 -32,272 -164,313 -772,240 -1812,311 -2917,248 -1170,-67 -2416,-282 -3492,-604zm24141 -40924c-92,102 -249,111 -352,20 -102,-92 -111,-249 -20,-352 437,-487 1199,-780 2024,-849 801,-66 1673,76 2368,457 121,66 165,218 99,339 -66,121 -218,165 -339,99 -605,-332 -1375,-455 -2087,-396 -707,59 -1346,295 -1694,683zm-753 9923c974,456 2033,659 3082,613 1686,-73 3343,-790 4573,-2131l12 -13 -1 -1c4,-4 9,-8 13,-13 1202,-1325 1764,-3008 1703,-4668 -36,207 -82,414 -136,618 -421,1572 -1384,3052 -2699,4124 -293,239 -603,457 -929,652 -925,553 -1921,880 -2926,998 -906,106 -1819,42 -2692,-180zm-29978 -8034c-1187,-1381 -1298,-2953 -686,-4412 348,-830 937,-1620 1698,-2308 751,-680 1668,-1261 2684,-1685 2989,-1247 6852,-1155 9870,1759 1544,-442 3170,-611 4811,-508 3236,204 6534,1467 9385,3787 1322,-1223 2993,-1878 4689,-1952 1876,-82 3783,548 5283,1908 15,11 30,24 44,38l-1 1c132,121 258,246 379,375l2 -2 25 30c1235,1325 1897,3005 1972,4710 82,1876 -548,3783 -1908,5283 -11,15 -24,30 -38,44l-1 -1c-878,954 -1950,1624 -3099,2006 91,391 174,784 249,1176 89,468 168,942 236,1421 251,1767 327,3520 244,5241 -215,4449 -1492,8673 -3544,12374 808,944 1676,2719 1914,4508 106,796 90,1600 -108,2342 -203,763 -595,1460 -1238,2017 -678,588 -1630,1014 -2927,1187 -423,56 -894,139 -1352,279 -441,135 -874,324 -1239,598 -872,652 -1043,1368 -1182,1952 -17,73 -34,144 -65,262 -262,998 -850,1734 -1623,2231 -838,539 -1893,789 -2977,779 -1070,-10 -2175,-274 -3130,-764 -1040,-533 -1907,-1335 -2373,-2371 -730,182 -1469,327 -2216,433 -1316,187 -2657,253 -4012,188 -61,-3 -109,-5 -145,-7 -4694,-267 -9984,-2534 -14036,-5969 -4077,-3455 -6915,-8099 -6674,-13098 2,-48 4,-83 5,-106 64,-1128 343,-2223 832,-3236 -75,-119 -149,-254 -217,-391 -165,-335 -306,-699 -355,-855 -161,-513 -296,-1035 -403,-1565 -104,-516 -182,-1052 -233,-1607 -383,-4163 957,-8088 3434,-11067 2023,-2433 4804,-4236 8024,-5025zm12695 -6365c-2701,-2366 -6065,-2400 -8693,-1303 -935,390 -1774,921 -2456,1538 -672,608 -1190,1302 -1495,2027 -543,1294 -380,2704 863,3909 432,-78 871,-138 1317,-179 719,-66 1430,-81 2128,-48 639,31 1269,101 1886,209 456,-1334 1303,-2697 2727,-4077l19 -19 12 -9c1130,-890 2375,-1573 3691,-2048zm4082 48460c399,805 1107,1438 1953,1872 846,434 1825,668 2774,677 935,9 1835,-201 2540,-654 611,-393 1075,-975 1282,-1762 12,-44 35,-142 59,-243 170,-711 378,-1583 1482,-2409 443,-332 961,-559 1486,-720 509,-156 1023,-246 1480,-307 1128,-151 1942,-508 2508,-1000 511,-443 824,-1002 988,-1617 170,-637 182,-1336 89,-2035 -200,-1498 -876,-2978 -1550,-3868 -859,1446 -1837,2806 -2917,4061 -3287,3818 -7516,6664 -12175,8006zm-14156 -41656c-32,-9 -61,-22 -88,-37 -76,6 -153,12 -229,19 -1092,101 -2143,321 -3144,647l6646 1906c-22,-528 -4,-1062 68,-1603l-3252 -933zm3218 91l179 51 5 -21c-61,-10 -122,-20 -184,-30zm37 3296l-7965 -2284c-693,300 -1356,653 -1984,1053l10266 2944c-135,-561 -246,-1133 -316,-1713zm552 2612l-11354 -3256c-503,374 -980,779 -1428,1213l13320 3820c-24,-77 -48,-155 -72,-232 -157,-504 -317,-1019 -465,-1544zm1454 2039l5 2 -2 8c697,2294 1150,4349 -238,6115l-22 25c-2665,2857 -4870,2312 -7075,1768 -1004,-248 -2008,-496 -3025,-369l0 1c-2384,425 -4237,1400 -5539,2701 -1400,1399 -2167,3180 -2274,5063 -3,45 -4,79 -5,99 -228,4725 2490,9144 6392,12451 3926,3328 9038,5524 13564,5782 59,3 105,6 139,7 1302,63 2593,-1 3862,-182 5635,-801 10822,-3900 14680,-8381 3864,-4488 6390,-10358 6696,-16693 81,-1669 7,-3371 -238,-5091 -68,-475 -144,-937 -229,-1386 -73,-383 -151,-754 -233,-1113 -410,89 -827,142 -1246,161 -1811,79 -3651,-505 -5125,-1769 -478,31 -848,185 -1131,430 -307,267 -523,651 -668,1111 -204,649 -265,1439 -238,2271 35,1093 -224,2178 -747,3137 -506,927 -1258,1734 -2229,2314 -925,553 -1939,833 -2946,864 -1043,32 -2078,-204 -3002,-681 -625,-323 -1246,-833 -1770,-1424 -524,-591 -957,-1271 -1204,-1932 -397,-1061 -491,-2212 -277,-3317 208,-1070 704,-2098 1496,-2962 765,-834 1707,-1408 2717,-1717 1044,-319 2159,-354 3222,-99 810,194 1597,294 2273,225 479,-49 899,-183 1223,-431 316,-242 550,-601 672,-1108 99,-414 125,-925 62,-1547 -105,-1029 7,-2080 338,-3077 300,-905 781,-1766 1444,-2526 -2705,-2183 -5821,-3373 -8876,-3565 -3185,-200 -6304,685 -8817,2659 -4159,4044 -2923,8012 -1855,11443 77,247 153,491 226,733zm-641 648l-14226 -4080c-146,160 -288,324 -427,490 -223,268 -435,543 -638,827l15703 4503c-88,-556 -237,-1138 -412,-1740zm496 2596l-16256 -4662c-284,451 -544,918 -777,1399l16793 4816c189,-485 257,-1005 240,-1553zm-632 2272l-16733 -4799c-200,479 -374,970 -521,1473l15877 4553c421,-280 853,-647 1299,-1122 27,-35 53,-70 78,-105zm-2421 1759l-15037 -4312c-118,506 -209,1021 -272,1544l7800 2237 -17 61c76,-15 153,-29 230,-43l19 -2c1172,-152 2253,115 3334,382 1281,316 2562,632 3943,132zm-8949 -113l-6433 -1845c-33,534 -37,1074 -10,1619l4180 1199c681,-387 1436,-715 2264,-973zm-3160 1547l-3215 -922c47,427 113,854 199,1279 29,143 59,285 92,426l1534 440c78,-84 157,-167 239,-248 348,-348 732,-674 1151,-975zm-1952 1894l-733 -210c16,53 32,105 49,158 38,120 141,388 267,655 129,-206 268,-407 417,-603zm23298 25721c241,-125 479,-256 715,-390l-396 -695c-228,129 -457,255 -689,376l370 709zm-30430 -24126c-67,264 -128,528 -185,794l783 166c55,-256 114,-511 178,-764l-776 -196zm-651 4838l-2 93 -2 135 -1 135 0 135 1 135 2 135 1 47 800 -18 -1 -42 -2 -130 -1 -130 0 -130 1 -130 2 -130 2 -93 -800 -13zm462 4860l24 113 28 128 29 127 30 127 31 127 31 127 12 45 775 -200 -10 -41 -30 -122 -30 -122 -29 -122 -28 -122 -27 -123 -24 -113 -781 171zm1563 4622l61 127 56 115 57 115 57 115 58 114 59 114 16 31 708 -372 -14 -26 -56 -110 -56 -110 -55 -110 -55 -111 -54 -111 -59 -123 -723 342zm2578 4147l66 83 80 99 81 99 81 98 82 98 82 97 46 54 606 -522 -43 -50 -79 -94 -79 -94 -78 -95 -78 -95 -77 -96 -66 -83 -624 500zm3450 3452l54 43 101 79 101 79 102 78 102 77 103 77 84 62 472 -646 -80 -59 -99 -74 -99 -74 -98 -75 -98 -76 -97 -76 -54 -43 -496 628zm4146 2577l72 34 118 55 119 54 119 53 119 53 120 52 76 33 311 -737 -72 -31 -115 -50 -115 -51 -114 -51 -114 -52 -114 -53 -72 -34 -338 725zm4626 1557l74 16 132 27 132 26 132 25 133 25 133 24 65 11 134 -789 -60 -10 -128 -23 -128 -24 -127 -25 -127 -25 -127 -26 -74 -16 -163 783zm4858 465c272,-5 543,-15 814,-30l-45 -799c-262,15 -523,24 -785,29l16 800zm4838 -650c263,-67 525,-139 786,-216l-228 -767c-251,74 -503,144 -757,208l199 775zm28209 -49002c-110,-116 -224,-229 -344,-339l-13 -12 -1 1c-4,-4 -8,-9 -13,-13 -1338,-1213 -3040,-1774 -4715,-1701 -1686,73 -3343,790 -4573,2131l-12 13 1 1c-5,5 -9,9 -14,13 -636,702 -1093,1503 -1373,2348 -295,889 -394,1827 -300,2749 72,712 39,1310 -80,1810 -168,701 -505,1208 -963,1558 -449,344 -1007,527 -1630,591 -770,78 -1645,-30 -2536,-244 -926,-222 -1897,-192 -2806,86 -877,268 -1696,767 -2361,1492 -687,749 -1118,1643 -1299,2574 -187,964 -106,1967 239,2889 213,568 591,1160 1054,1682 461,520 1001,965 1539,1243 805,416 1707,621 2615,594 874,-27 1754,-270 2558,-751 845,-505 1499,-1207 1938,-2011 455,-834 681,-1779 650,-2730 -30,-916 41,-1796 273,-2534 187,-596 480,-1105 909,-1477 436,-378 999,-605 1719,-628 514,-17 1107,72 1790,286 883,277 1822,369 2754,260 896,-105 1783,-397 2607,-889 293,-175 572,-371 836,-586 1184,-965 2052,-2297 2430,-3711 373,-1394 267,-2865 -489,-4130 -115,-193 -246,-381 -392,-564z"/></g><text x="0" y="60015" fill="#000000" font-size="5px" font-weight="bold" font-family="'Helvetica Neue', Helvetica, Arial-Unicode, Arial, Sans-serif">Created by Olena Panasovska</text><text x="0" y="60020" fill="#000000" font-size="5px" font-weight="bold" font-family="'Helvetica Neue', Helvetica, Arial-Unicode, Arial, Sans-serif">from the Noun Project</text></svg>